<?xml version="1.0" encoding="UTF-8"?>
<svg width="24px" height="18px" viewBox="0 0 24 18" version="1.1" xmlns="http://www.w3.org/2000/svg" xmlns:xlink="http://www.w3.org/1999/xlink">
    <!-- Generator: Sketch 53.2 (72643) - https://sketchapp.com -->
    <title>noun_chat_2217154</title>
    <desc>Created with Sketch.</desc>
    <g id="Symbols" stroke="none" stroke-width="1" fill="none" fill-rule="evenodd">
        <g id="profile-actions" transform="translate(-32.000000, 1.000000)" fill-rule="nonzero" stroke="#FD8D81" stroke-width="0.8">
            <g id="noun_Heart_2227573-2">
                <g id="noun_Heart_2227573">
                    <g id="Group">
                        <g id="noun_chat_2217154" transform="translate(33.045455, 0.000000)">
                            <path d="M21.9545455,9.77164639 C21.9545455,7.92512034 20.805103,6.18751467 18.8796894,5.12717025 L18.7530848,5.0573495 L18.6923439,4.93050847 C17.2774955,1.98128009 13.6464576,0 9.65658485,0 C4.33187576,-2.06710938e-15 0,3.41516551 0,7.6130216 C0.0265770174,9.336771 0.734164819,10.9874249 1.98127576,12.2349224 L2.14959394,12.408776 L1.14261212,16.2272727 L5.43594545,14.4647643 L5.6096303,14.5283012 C6.90224496,14.9955297 8.27383688,15.2321943 9.65609697,15.2265087 C10.4112586,15.2269929 11.1646508,15.1568366 11.9054621,15.0170464 L12.0242606,14.9937728 L12.1391561,15.0300796 C13.9543119,15.5968731 15.9162571,15.5665526 17.7112197,14.9439674 L17.8819773,14.8832233 L21.1563758,16.2272727 L20.3886985,13.3129547 L20.5506742,13.140032 C21.4362691,12.21979 21.935976,11.0208157 21.9545455,9.77164639 Z M19.6615152,13.1139656 L20.1981818,15.1529642 L17.8858803,14.203402 L17.7578121,14.2543711 C16.817238,14.6254061 15.8085637,14.8137931 14.7907773,14.8085151 C14.5841606,14.8085151 14.36925,14.8003694 14.1519,14.7852415 C13.9650424,14.7710447 13.7779409,14.7503312 13.5959621,14.7242648 C13.0500088,14.6463007 12.5146309,14.5115991 11.9993788,14.3225627 C9.74196364,13.4898339 8.28296212,11.7038192 8.28296212,9.77164639 C8.28296212,6.99440978 11.2024288,4.73501038 14.7910212,4.73501038 C15.9564944,4.7299662 17.1078183,4.97862897 18.1573848,5.4620771 C18.2237364,5.49310854 18.2891934,5.52514851 18.3537561,5.55819699 C18.7973749,5.78179719 19.2117694,6.0545902 19.5883333,6.3709105 C20.6479019,7.21455776 21.271834,8.45520495 21.2985924,9.77164639 C21.2755532,10.9941063 20.7329294,12.1551775 19.7951939,12.988521 L19.6615152,13.1139656 Z M2.10275758,15.1529642 L2.87214242,12.2330605 L2.87799697,12.2097869 L2.74309848,12.0838768 C1.44051602,10.9253929 0.687119217,9.31173706 0.655709091,7.6130216 C0.655709091,3.76008 4.69339394,0.625361164 9.65707273,0.625361164 C12.5599515,0.625361164 15.3028061,1.72550341 16.9937939,3.56830568 L17.899297,4.55533832 L16.5537273,4.28443382 C15.9741098,4.16793276 15.3833615,4.10927794 14.7910212,4.10941648 C10.8409106,4.10941648 7.62749697,6.64949528 7.62749697,9.77164639 C7.62749697,11.3095647 8.39541818,12.7478721 9.7900197,13.8212498 L10.823347,14.6167408 L9.49582879,14.5988202 C8.14545913,14.5869808 6.81000047,14.3281583 5.56181818,13.8363776 L5.43375,13.784943 L2.10275758,15.1529642 Z" id="Shape"></path>
                            <path d="M11.9319993,9.54545458 C11.7389475,9.54538415 11.5648656,9.66162155 11.4909391,9.83995794 C11.4170125,10.0182943 11.4578024,10.2236034 11.5942857,10.3601366 C11.7307691,10.4966697 11.9360632,10.5375345 12.1144266,10.463673 C12.29279,10.3898115 12.4090909,10.2157721 12.4090909,10.0227203 C12.408899,9.75928124 12.1954383,9.54574263 11.9319993,9.54545458 L11.9319993,9.54545458 Z" id="Path"></path>
                            <path d="M14.7956356,9.54545458 C14.6025838,9.54538415 14.428502,9.66162155 14.3545754,9.83995794 C14.2806489,10.0182943 14.3214387,10.2236034 14.4579221,10.3601366 C14.5944054,10.4966697 14.7996996,10.5375345 14.978063,10.463673 C15.1564263,10.3898115 15.2727273,10.2157721 15.2727273,10.0227203 C15.2725353,9.75928124 15.0590746,9.54574263 14.7956356,9.54545458 L14.7956356,9.54545458 Z" id="Path"></path>
                            <path d="M17.659272,9.54545458 C17.4662202,9.54538415 17.2921383,9.66162155 17.2182118,9.83995794 C17.1442853,10.0182943 17.1850751,10.2236034 17.3215585,10.3601366 C17.4580418,10.4966697 17.663336,10.5375345 17.8416993,10.463673 C18.0200627,10.3898115 18.1363636,10.2157721 18.1363636,10.0227203 C18.1361717,9.75928124 17.922711,9.54574263 17.659272,9.54545458 L17.659272,9.54545458 Z" id="Path"></path>
                        </g>
                    </g>
                </g>
            </g>
        </g>
    </g>
</svg>