<?xml version="1.0" encoding="UTF-8"?>
<svg width="18px" height="18px" viewBox="0 0 18 18" version="1.1" xmlns="http://www.w3.org/2000/svg" xmlns:xlink="http://www.w3.org/1999/xlink">
    <!-- Generator: Sketch 53.2 (72643) - https://sketchapp.com -->
    <title>Shape</title>
    <desc>Created with Sketch.</desc>
    <g id="Symbols" stroke="none" stroke-width="1" fill="none" fill-rule="evenodd">
        <g id="profile-actions" fill="#FD8D81" fill-rule="nonzero">
            <g id="noun_Heart_2227573-2">
                <g id="noun_Heart_2227573">
                    <g id="Group">
                        <path d="M5.0044799,0.0195800128 C2.01588986,0.0195800128 0,3.0027986 0,6.18295229 C0,8.81763649 0.98748535,10.7866729 2.49879808,12.3841464 C4.0101108,13.9816198 6.02050909,15.2770563 8.23295455,16.8384238 L8.59090909,17.0955461 L8.94886364,16.8384238 C11.1613091,15.2770563 13.1717074,13.9816198 14.6830201,12.3841464 C16.1943328,10.7866729 17.1818182,8.81763649 17.1818182,6.18295229 C17.1818182,3.0027986 15.1659283,0.0195800128 12.1773383,0.0195800128 C10.6096626,0.0195800128 9.37078301,0.747442971 8.59090909,1.42619013 C7.81103738,0.747442971 6.5721578,0.0195800128 5.0044799,0.0195800128 Z M5.0044799,1.47156465 C6.42446685,1.47156465 7.69494997,2.41293711 8.12281469,2.88573718 L8.59090909,3.39998174 L9.0590035,2.88573718 C9.48686822,2.41293953 10.7573535,1.47156465 12.1773383,1.47156465 C14.3634845,1.47156465 15.8601399,3.65705804 15.8601399,6.18295229 C15.8601399,8.4391525 15.1090609,9.9224758 13.7674825,11.3405324 C12.5035483,12.6765277 10.6658648,13.9078832 8.59090909,15.3637398 C6.51595343,13.9078832 4.67826986,12.6765277 3.41433566,11.3405324 C2.07275727,9.9224758 1.32167832,8.4391525 1.32167832,6.18295229 C1.32167832,3.65705804 2.81833364,1.47156465 5.0044799,1.47156465 Z" id="Shape"></path>
                    </g>
                </g>
            </g>
        </g>
    </g>
</svg>